<svg xmlns="http://www.w3.org/2000/svg" xmlns:xlink="http://www.w3.org/1999/xlink" width="250" zoomAndPan="magnify" viewBox="0 0 187.5 112.499997" height="150" preserveAspectRatio="xMidYMid meet" version="1.0"><defs><g/><clipPath id="02e2e53205"><path d="M 8 65 L 157 65 L 157 87 L 8 87 Z M 8 65 " clip-rule="nonzero"/></clipPath><clipPath id="b3f4449943"><path d="M 8.515625 76.179688 L 156.65625 64.632812 L 157.816406 79.523438 L 9.675781 91.066406 Z M 8.515625 76.179688 " clip-rule="nonzero"/></clipPath><clipPath id="a9b4e309fa"><path d="M 8.515625 76.179688 L 156.65625 64.632812 L 157.816406 79.523438 L 9.675781 91.066406 Z M 8.515625 76.179688 " clip-rule="nonzero"/></clipPath><clipPath id="faf1f441f6"><path d="M 8.515625 76.179688 L 156.65625 64.632812 L 157.816406 79.523438 L 9.675781 91.066406 Z M 8.515625 76.179688 " clip-rule="nonzero"/></clipPath></defs><g fill="#000000" fill-opacity="1"><g transform="translate(8.414149, 72.524724)"><g><path d="M 7.484375 -18.105469 C 7.875 -18.144531 8.195312 -18.082031 8.453125 -17.925781 C 8.710938 -17.769531 8.851562 -17.558594 8.878906 -17.289062 C 8.894531 -17.140625 8.871094 -16.992188 8.808594 -16.851562 C 8.746094 -16.707031 8.605469 -16.382812 8.382812 -15.878906 C 8.101562 -15.335938 8 -14.675781 8.078125 -13.898438 C 8.144531 -13.210938 8.339844 -12.578125 8.667969 -12.007812 C 8.996094 -11.433594 9.421875 -10.953125 9.945312 -10.566406 C 10.464844 -10.179688 11.070312 -9.890625 11.753906 -9.699219 C 12.4375 -9.507812 13.152344 -9.449219 13.902344 -9.523438 C 14.980469 -9.628906 16.003906 -9.972656 16.976562 -10.550781 C 17.949219 -11.128906 18.785156 -11.859375 19.484375 -12.746094 C 20.183594 -13.628906 20.714844 -14.621094 21.078125 -15.714844 C 21.4375 -16.808594 21.5625 -17.921875 21.453125 -19.0625 C 21.304688 -20.589844 20.808594 -21.789062 19.964844 -22.660156 C 19.125 -23.527344 18.121094 -23.90625 16.953125 -23.792969 C 16.082031 -23.707031 15.378906 -23.359375 14.832031 -22.746094 C 14.289062 -22.132812 14.054688 -21.421875 14.132812 -20.613281 C 14.1875 -20.074219 14.417969 -19.628906 14.832031 -19.277344 C 15.242188 -18.921875 15.703125 -18.773438 16.214844 -18.820312 C 16.394531 -18.839844 16.527344 -18.867188 16.613281 -18.90625 C 16.789062 -18.953125 16.9375 -18.992188 17.054688 -19.019531 C 17.175781 -19.042969 17.265625 -19.0625 17.324219 -19.066406 C 17.535156 -19.085938 17.722656 -19.023438 17.886719 -18.871094 C 18.054688 -18.722656 18.148438 -18.527344 18.171875 -18.289062 C 18.199219 -17.988281 18.117188 -17.683594 17.917969 -17.378906 C 17.722656 -17.070312 17.449219 -16.789062 17.097656 -16.527344 C 16.742188 -16.265625 16.339844 -16.042969 15.890625 -15.863281 C 15.4375 -15.683594 14.972656 -15.570312 14.496094 -15.523438 C 13.746094 -15.449219 13.019531 -15.546875 12.3125 -15.808594 C 11.605469 -16.074219 10.964844 -16.457031 10.386719 -16.960938 C 9.808594 -17.460938 9.332031 -18.066406 8.960938 -18.769531 C 8.589844 -19.476562 8.363281 -20.230469 8.285156 -21.039062 C 8.175781 -22.148438 8.34375 -23.222656 8.785156 -24.265625 C 9.230469 -25.304688 9.878906 -26.246094 10.734375 -27.085938 C 11.589844 -27.925781 12.609375 -28.621094 13.796875 -29.175781 C 14.980469 -29.730469 16.261719 -30.078125 17.640625 -30.210938 C 19.347656 -30.378906 20.945312 -30.207031 22.429688 -29.703125 C 23.917969 -29.199219 25.21875 -28.417969 26.332031 -27.363281 C 27.449219 -26.308594 28.363281 -25 29.074219 -23.4375 C 29.789062 -21.871094 30.242188 -20.101562 30.433594 -18.125 C 30.699219 -15.398438 30.476562 -12.808594 29.765625 -10.347656 C 29.054688 -7.890625 27.960938 -5.695312 26.484375 -3.769531 C 25.011719 -1.839844 23.214844 -0.257812 21.097656 0.976562 C 18.980469 2.210938 16.664062 2.953125 14.148438 3.199219 C 12.351562 3.375 10.699219 3.257812 9.191406 2.84375 C 7.683594 2.433594 6.355469 1.761719 5.207031 0.828125 C 4.058594 -0.101562 3.128906 -1.25 2.421875 -2.617188 C 1.710938 -3.984375 1.273438 -5.550781 1.097656 -7.320312 C 0.960938 -8.726562 1.054688 -10.082031 1.382812 -11.382812 C 1.707031 -12.6875 2.257812 -13.859375 3.035156 -14.902344 C 3.699219 -15.84375 4.425781 -16.597656 5.21875 -17.15625 C 6.007812 -17.71875 6.765625 -18.035156 7.484375 -18.105469 Z M 7.484375 -18.105469 "/></g></g></g><g fill="#000000" fill-opacity="1"><g transform="translate(41.02634, 69.336859)"><g><path d="M 19.160156 -9.085938 C 19.078125 -8.382812 19.050781 -7.894531 19.078125 -7.625 C 19.113281 -7.265625 19.269531 -6.972656 19.550781 -6.742188 C 19.828125 -6.511719 20.132812 -6.414062 20.460938 -6.445312 C 20.703125 -6.46875 21.007812 -6.574219 21.382812 -6.761719 C 21.816406 -6.984375 22.136719 -7.109375 22.347656 -7.128906 C 22.554688 -7.148438 22.742188 -7.09375 22.90625 -6.957031 C 23.070312 -6.820312 23.164062 -6.648438 23.183594 -6.441406 C 23.234375 -5.929688 23.039062 -5.382812 22.597656 -4.792969 C 22.15625 -4.207031 21.574219 -3.652344 20.855469 -3.128906 C 20.136719 -2.601562 19.332031 -2.148438 18.449219 -1.757812 C 17.5625 -1.371094 16.703125 -1.132812 15.863281 -1.050781 C 14.816406 -0.949219 13.941406 -1.136719 13.246094 -1.613281 C 12.550781 -2.089844 12.125 -2.804688 11.972656 -3.753906 C 11.015625 -2.695312 9.972656 -1.835938 8.84375 -1.183594 C 7.710938 -0.527344 6.652344 -0.152344 5.664062 -0.0546875 C 4.496094 0.0585938 3.480469 -0.1875 2.621094 -0.800781 C 1.757812 -1.410156 1.28125 -2.210938 1.183594 -3.199219 C 1.171875 -3.320312 1.167969 -3.449219 1.167969 -3.585938 C 1.171875 -3.71875 1.179688 -3.863281 1.195312 -4.019531 L 2.074219 -12.179688 C 2.128906 -12.578125 2.136719 -12.957031 2.101562 -13.316406 C 2.0625 -13.703125 1.957031 -14.003906 1.785156 -14.214844 C 1.613281 -14.421875 1.308594 -14.628906 0.863281 -14.828125 C 1.800781 -15.765625 2.769531 -16.515625 3.773438 -17.085938 C 4.777344 -17.652344 5.710938 -17.976562 6.582031 -18.0625 C 7.390625 -18.140625 8.046875 -17.984375 8.554688 -17.597656 C 9.0625 -17.207031 9.351562 -16.625 9.429688 -15.84375 C 9.457031 -15.546875 9.460938 -15.351562 9.441406 -15.257812 L 8.75 -8.882812 C 8.691406 -8.515625 8.679688 -8.195312 8.707031 -7.925781 C 8.738281 -7.597656 8.875 -7.339844 9.121094 -7.152344 C 9.367188 -6.964844 9.667969 -6.886719 10.027344 -6.921875 C 10.65625 -6.984375 11.144531 -7.25 11.492188 -7.722656 C 11.839844 -8.195312 12.085938 -8.921875 12.230469 -9.90625 L 12.679688 -13.214844 C 12.714844 -13.460938 12.742188 -13.675781 12.753906 -13.855469 C 12.765625 -14.039062 12.761719 -14.222656 12.746094 -14.402344 C 12.738281 -14.761719 12.636719 -15.046875 12.433594 -15.253906 C 12.234375 -15.460938 11.878906 -15.660156 11.378906 -15.855469 C 12.457031 -16.898438 13.460938 -17.675781 14.394531 -18.191406 C 15.324219 -18.703125 16.269531 -19.007812 17.230469 -19.101562 C 18.007812 -19.179688 18.652344 -19.03125 19.15625 -18.65625 C 19.660156 -18.28125 19.949219 -17.734375 20.019531 -17.015625 C 20.035156 -16.835938 20.03125 -16.59375 20 -16.289062 Z M 19.160156 -9.085938 "/></g></g></g><g fill="#000000" fill-opacity="1"><g transform="translate(64.250163, 67.066714)"><g><path d="M 12.085938 -18.371094 C 12.984375 -18.460938 13.472656 -18.085938 13.554688 -17.246094 C 13.601562 -16.765625 13.582031 -16.273438 13.496094 -15.765625 C 13.410156 -15.257812 13.289062 -14.875 13.132812 -14.621094 C 12.835938 -14.226562 12.34375 -14 11.65625 -13.929688 L 9.273438 -13.699219 C 9.167969 -12.933594 9.066406 -12.1875 8.972656 -11.46875 C 8.875 -10.75 8.804688 -10.085938 8.757812 -9.476562 C 8.710938 -8.867188 8.671875 -8.339844 8.640625 -7.898438 C 8.609375 -7.457031 8.601562 -7.144531 8.617188 -6.964844 C 8.671875 -6.398438 8.898438 -5.972656 9.285156 -5.691406 C 9.675781 -5.414062 10.1875 -5.304688 10.816406 -5.367188 C 11.054688 -5.390625 11.304688 -5.453125 11.570312 -5.554688 C 11.832031 -5.65625 12.164062 -5.800781 12.570312 -5.992188 C 12.941406 -6.210938 13.277344 -6.332031 13.574219 -6.363281 C 14.054688 -6.410156 14.320312 -6.179688 14.371094 -5.667969 C 14.445312 -4.890625 13.773438 -3.886719 12.351562 -2.660156 C 11.628906 -2.011719 10.777344 -1.484375 9.804688 -1.070312 C 8.832031 -0.660156 7.867188 -0.40625 6.910156 -0.3125 C 5.351562 -0.160156 4.023438 -0.460938 2.921875 -1.214844 C 1.820312 -1.96875 1.203125 -2.992188 1.078125 -4.277344 C 1.050781 -4.578125 1.03125 -4.855469 1.019531 -5.113281 C 1.011719 -5.367188 1.03125 -5.679688 1.085938 -6.046875 C 1.140625 -6.417969 1.230469 -6.894531 1.355469 -7.480469 C 1.480469 -8.066406 1.644531 -8.855469 1.851562 -9.84375 C 2.015625 -10.613281 2.132812 -11.199219 2.199219 -11.601562 C 2.265625 -12 2.332031 -12.476562 2.402344 -13.027344 C 1.339844 -13.042969 0.769531 -13.488281 0.683594 -14.355469 C 0.65625 -14.625 0.675781 -14.882812 0.742188 -15.132812 C 0.808594 -15.382812 0.960938 -15.675781 1.203125 -16.015625 C 1.441406 -16.355469 1.792969 -16.777344 2.257812 -17.277344 C 2.722656 -17.777344 3.339844 -18.410156 4.113281 -19.179688 C 5.488281 -20.585938 6.597656 -21.609375 7.441406 -22.25 C 8.285156 -22.894531 8.960938 -23.238281 9.472656 -23.289062 C 9.773438 -23.316406 10.027344 -23.246094 10.242188 -23.070312 C 10.457031 -22.894531 10.578125 -22.65625 10.605469 -22.355469 C 10.613281 -22.296875 10.617188 -22.238281 10.625 -22.175781 C 10.628906 -22.117188 10.617188 -22.007812 10.585938 -21.855469 C 10.558594 -21.703125 10.511719 -21.46875 10.449219 -21.160156 C 10.390625 -20.851562 10.296875 -20.421875 10.167969 -19.863281 C 10.070312 -19.339844 10.011719 -18.996094 10 -18.828125 C 9.984375 -18.660156 9.960938 -18.4375 9.925781 -18.164062 Z M 12.085938 -18.371094 "/></g></g></g><g fill="#000000" fill-opacity="1"><g transform="translate(78.669594, 65.657205)"><g><path d="M 2.667969 -15.410156 C 2.722656 -15.75 2.757812 -16.03125 2.765625 -16.261719 C 2.773438 -16.488281 2.769531 -16.675781 2.753906 -16.824219 C 2.722656 -17.15625 2.628906 -17.417969 2.472656 -17.613281 C 2.320312 -17.8125 2.046875 -18.027344 1.664062 -18.261719 C 2.769531 -19.308594 3.761719 -20.070312 4.636719 -20.546875 C 5.511719 -21.027344 6.445312 -21.3125 7.433594 -21.410156 C 8.273438 -21.492188 8.933594 -21.375 9.417969 -21.0625 C 9.902344 -20.746094 10.175781 -20.273438 10.238281 -19.644531 C 10.25 -19.523438 10.257812 -19.367188 10.261719 -19.167969 C 10.265625 -18.972656 10.246094 -18.769531 10.207031 -18.550781 L 10.050781 -16.902344 C 10.859375 -17.589844 11.589844 -18.082031 12.242188 -18.386719 C 12.890625 -18.695312 13.605469 -18.882812 14.386719 -18.960938 C 16.003906 -19.117188 17.359375 -18.683594 18.460938 -17.65625 C 19.558594 -16.632812 20.195312 -15.21875 20.371094 -13.421875 C 20.527344 -11.804688 20.402344 -10.167969 19.988281 -8.507812 C 19.578125 -6.851562 18.9375 -5.34375 18.070312 -3.988281 C 17.46875 -3.054688 16.703125 -2.296875 15.777344 -1.722656 C 14.847656 -1.148438 13.863281 -0.8125 12.8125 -0.707031 C 11.882812 -0.617188 11.066406 -0.710938 10.359375 -0.988281 C 9.652344 -1.269531 8.914062 -1.761719 8.148438 -2.476562 L 7.238281 4.917969 C 7.109375 6.078125 6.792969 6.933594 6.289062 7.480469 C 5.78125 8.03125 5.050781 8.351562 4.089844 8.445312 L 2.160156 8.632812 C 1.859375 8.664062 1.597656 8.703125 1.378906 8.757812 C 1.15625 8.808594 0.945312 8.898438 0.746094 9.023438 C 0.546875 9.148438 0.335938 9.3125 0.113281 9.515625 C -0.109375 9.71875 -0.355469 9.96875 -0.628906 10.269531 Z M 11.238281 -14.027344 C 10.640625 -13.96875 10.125 -13.609375 9.6875 -12.945312 C 9.253906 -12.28125 9.046875 -11.542969 9.066406 -10.730469 C 9.085938 -10.21875 9.253906 -9.808594 9.570312 -9.507812 C 9.886719 -9.207031 10.285156 -9.078125 10.765625 -9.125 C 11.425781 -9.191406 11.96875 -9.570312 12.402344 -10.261719 C 12.832031 -10.953125 13.007812 -11.71875 12.925781 -12.558594 C 12.878906 -13.039062 12.699219 -13.414062 12.382812 -13.683594 C 12.070312 -13.957031 11.6875 -14.070312 11.238281 -14.027344 Z M 11.238281 -14.027344 "/></g></g></g><g fill="#000000" fill-opacity="1"><g transform="translate(100.545814, 63.518789)"><g><path d="M 19.066406 -9.121094 C 18.964844 -8.324219 18.925781 -7.792969 18.953125 -7.523438 C 18.984375 -7.191406 19.136719 -6.921875 19.417969 -6.707031 C 19.695312 -6.492188 20.027344 -6.402344 20.417969 -6.441406 C 20.746094 -6.472656 21.039062 -6.5625 21.296875 -6.707031 C 21.910156 -6.949219 22.246094 -7.074219 22.304688 -7.078125 C 22.515625 -7.101562 22.703125 -7.042969 22.867188 -6.90625 C 23.03125 -6.773438 23.125 -6.585938 23.148438 -6.34375 C 23.195312 -5.867188 22.996094 -5.339844 22.554688 -4.769531 C 22.113281 -4.195312 21.539062 -3.648438 20.832031 -3.125 C 20.128906 -2.601562 19.347656 -2.148438 18.492188 -1.761719 C 17.640625 -1.375 16.824219 -1.144531 16.042969 -1.070312 C 14.996094 -0.96875 14.09375 -1.226562 13.335938 -1.847656 C 12.582031 -2.46875 12.152344 -3.304688 12.046875 -4.351562 C 12.035156 -4.503906 12.019531 -4.660156 12.003906 -4.824219 C 11.988281 -4.988281 11.984375 -5.179688 11.992188 -5.390625 C 11.648438 -4.875 11.375 -4.453125 11.164062 -4.128906 C 10.953125 -3.808594 10.769531 -3.53125 10.609375 -3.304688 C 10.449219 -3.078125 10.296875 -2.882812 10.144531 -2.714844 C 9.996094 -2.550781 9.839844 -2.367188 9.675781 -2.171875 C 9.164062 -1.546875 8.5625 -1.042969 7.875 -0.65625 C 7.1875 -0.273438 6.527344 -0.046875 5.898438 0.0117188 C 4.550781 0.144531 3.394531 -0.300781 2.433594 -1.328125 C 1.472656 -2.351562 0.90625 -3.734375 0.734375 -5.46875 C 0.589844 -6.96875 0.730469 -8.464844 1.160156 -9.957031 C 1.585938 -11.449219 2.203125 -12.804688 3.007812 -14.015625 C 3.8125 -15.226562 4.773438 -16.230469 5.890625 -17.019531 C 7.007812 -17.808594 8.195312 -18.265625 9.453125 -18.386719 C 11.21875 -18.5625 12.734375 -18.058594 14 -16.882812 C 14.5 -17.324219 14.933594 -17.683594 15.300781 -17.960938 C 15.664062 -18.238281 15.992188 -18.460938 16.277344 -18.625 C 16.566406 -18.789062 16.832031 -18.90625 17.082031 -18.976562 C 17.332031 -19.042969 17.609375 -19.09375 17.90625 -19.125 C 18.507812 -19.183594 19.007812 -19.074219 19.414062 -18.792969 C 19.820312 -18.515625 20.03125 -18.136719 20.046875 -17.65625 C 20.078125 -17.355469 20.0625 -17.050781 20 -16.742188 Z M 11.03125 -13.824219 C 10.375 -13.761719 9.824219 -13.410156 9.386719 -12.78125 C 8.949219 -12.148438 8.769531 -11.457031 8.84375 -10.707031 C 8.953125 -9.570312 9.503906 -9.046875 10.492188 -9.144531 C 10.792969 -9.175781 11.074219 -9.292969 11.339844 -9.5 C 11.609375 -9.707031 11.839844 -9.972656 12.035156 -10.292969 C 12.230469 -10.617188 12.378906 -10.96875 12.476562 -11.359375 C 12.574219 -11.746094 12.601562 -12.148438 12.5625 -12.566406 C 12.46875 -13.496094 11.960938 -13.914062 11.03125 -13.824219 Z M 11.03125 -13.824219 "/></g></g></g><g fill="#000000" fill-opacity="1"><g transform="translate(123.679797, 61.257426)"><g><path d="M 2.34375 -12.203125 C 2.382812 -12.421875 2.398438 -12.65625 2.390625 -12.910156 C 2.378906 -13.167969 2.363281 -13.414062 2.339844 -13.65625 C 2.304688 -14.015625 2.210938 -14.285156 2.054688 -14.46875 C 1.902344 -14.648438 1.632812 -14.839844 1.25 -15.046875 C 1.605469 -15.445312 2.023438 -15.824219 2.5 -16.1875 C 2.976562 -16.554688 3.476562 -16.875 3.992188 -17.152344 C 4.511719 -17.429688 5.023438 -17.660156 5.535156 -17.847656 C 6.046875 -18.03125 6.527344 -18.148438 6.976562 -18.191406 C 7.753906 -18.265625 8.394531 -18.140625 8.894531 -17.8125 C 9.398438 -17.484375 9.679688 -16.988281 9.742188 -16.328125 C 9.757812 -16.179688 9.761719 -15.984375 9.757812 -15.742188 C 9.75 -15.5 9.738281 -15.148438 9.722656 -14.695312 C 10.128906 -15.15625 10.449219 -15.523438 10.679688 -15.785156 C 10.914062 -16.050781 11.109375 -16.273438 11.273438 -16.457031 C 11.4375 -16.640625 11.582031 -16.78125 11.707031 -16.882812 C 11.835938 -16.988281 11.980469 -17.121094 12.144531 -17.289062 C 12.617188 -17.730469 13.175781 -18.09375 13.828125 -18.386719 C 14.480469 -18.675781 15.105469 -18.851562 15.707031 -18.910156 C 16.695312 -19.003906 17.53125 -18.792969 18.21875 -18.269531 C 18.90625 -17.746094 19.292969 -17.007812 19.386719 -16.046875 C 19.457031 -15.359375 19.390625 -14.6875 19.199219 -14.035156 C 19.007812 -13.378906 18.714844 -12.792969 18.328125 -12.269531 C 17.941406 -11.75 17.484375 -11.316406 16.957031 -10.980469 C 16.429688 -10.640625 15.867188 -10.441406 15.269531 -10.382812 C 14.550781 -10.3125 13.902344 -10.460938 13.320312 -10.828125 C 12.742188 -11.195312 12.421875 -11.664062 12.367188 -12.230469 C 12.359375 -12.320312 12.355469 -12.425781 12.359375 -12.546875 C 12.363281 -12.667969 12.371094 -12.804688 12.386719 -12.960938 C 11.820312 -12.570312 11.347656 -12.160156 10.964844 -11.730469 C 10.582031 -11.300781 10.253906 -10.824219 9.972656 -10.296875 C 9.691406 -9.769531 9.453125 -9.15625 9.265625 -8.457031 C 9.078125 -7.757812 8.910156 -6.933594 8.757812 -5.980469 L 8.535156 -4.101562 C 8.238281 -1.894531 7.1875 -0.703125 5.390625 -0.527344 L 3.640625 -0.355469 C 3.128906 -0.304688 2.652344 -0.175781 2.203125 0.0351562 C 1.753906 0.246094 1.296875 0.582031 0.828125 1.054688 Z M 2.34375 -12.203125 "/></g></g></g><g fill="#000000" fill-opacity="1"><g transform="translate(142.681139, 59.400032)"><g><path d="M 8.640625 -18.355469 C 9.628906 -18.449219 10.550781 -18.441406 11.410156 -18.328125 C 12.265625 -18.21875 13.019531 -18.027344 13.664062 -17.757812 C 14.3125 -17.488281 14.828125 -17.136719 15.21875 -16.707031 C 15.609375 -16.277344 15.828125 -15.789062 15.882812 -15.25 C 15.941406 -14.652344 15.773438 -14.113281 15.382812 -13.636719 C 14.992188 -13.160156 14.496094 -12.894531 13.894531 -12.835938 C 13.476562 -12.792969 13.078125 -12.859375 12.695312 -13.035156 C 12.316406 -13.210938 11.800781 -13.535156 11.148438 -14.019531 C 10.359375 -14.667969 9.726562 -14.96875 9.246094 -14.921875 C 9.007812 -14.898438 8.8125 -14.800781 8.660156 -14.636719 C 8.511719 -14.46875 8.445312 -14.28125 8.46875 -14.074219 C 8.484375 -13.894531 8.53125 -13.738281 8.605469 -13.609375 C 8.675781 -13.480469 8.820312 -13.34375 9.03125 -13.199219 C 9.242188 -13.050781 9.550781 -12.878906 9.964844 -12.675781 C 10.378906 -12.476562 10.945312 -12.230469 11.671875 -11.9375 C 14.101562 -10.875 15.40625 -9.445312 15.582031 -7.648438 C 15.679688 -6.660156 15.550781 -5.738281 15.195312 -4.886719 C 14.839844 -4.035156 14.300781 -3.28125 13.578125 -2.621094 C 12.855469 -1.960938 11.972656 -1.417969 10.925781 -1 C 9.878906 -0.578125 8.695312 -0.304688 7.375 -0.175781 C 6.296875 -0.0703125 5.304688 -0.0859375 4.402344 -0.226562 C 3.496094 -0.363281 2.707031 -0.597656 2.042969 -0.925781 C 1.375 -1.253906 0.839844 -1.675781 0.441406 -2.199219 C 0.0429688 -2.71875 -0.1875 -3.324219 -0.257812 -4.011719 C -0.335938 -4.820312 -0.140625 -5.527344 0.332031 -6.132812 C 0.800781 -6.738281 1.425781 -7.078125 2.203125 -7.15625 C 3.042969 -7.238281 3.898438 -7.003906 4.765625 -6.453125 C 4.832031 -6.398438 4.988281 -6.265625 5.238281 -6.046875 C 5.484375 -5.828125 5.808594 -5.527344 6.210938 -5.144531 C 7.039062 -4.40625 7.78125 -4.070312 8.441406 -4.136719 C 8.710938 -4.164062 8.933594 -4.28125 9.109375 -4.496094 C 9.285156 -4.710938 9.359375 -4.953125 9.332031 -5.222656 C 9.316406 -5.371094 9.273438 -5.503906 9.203125 -5.617188 C 9.132812 -5.730469 9 -5.863281 8.800781 -6.007812 C 8.605469 -6.15625 8.324219 -6.332031 7.957031 -6.539062 C 7.589844 -6.746094 7.101562 -7 6.5 -7.304688 C 5.640625 -7.734375 4.933594 -8.132812 4.386719 -8.503906 C 3.835938 -8.871094 3.382812 -9.238281 3.03125 -9.59375 C 2.679688 -9.953125 2.421875 -10.335938 2.261719 -10.746094 C 2.101562 -11.152344 1.992188 -11.625 1.941406 -12.164062 C 1.867188 -12.914062 1.992188 -13.636719 2.320312 -14.332031 C 2.644531 -15.03125 3.105469 -15.65625 3.699219 -16.214844 C 4.296875 -16.773438 5.019531 -17.242188 5.875 -17.628906 C 6.730469 -18.015625 7.652344 -18.257812 8.640625 -18.355469 Z M 8.640625 -18.355469 "/></g></g></g><g fill="#000000" fill-opacity="1"><g transform="translate(159.975474, 57.709498)"><g><path d="M 8.480469 -6.996094 C 8.527344 -6.488281 8.789062 -6.074219 9.257812 -5.757812 C 9.726562 -5.441406 10.277344 -5.3125 10.90625 -5.375 C 11.324219 -5.417969 11.71875 -5.492188 12.085938 -5.605469 C 12.453125 -5.714844 12.851562 -5.882812 13.285156 -6.105469 C 13.714844 -6.332031 14.195312 -6.617188 14.71875 -6.972656 C 15.242188 -7.328125 15.875 -7.765625 16.609375 -8.292969 C 16.945312 -8.535156 17.296875 -8.675781 17.65625 -8.710938 C 17.957031 -8.742188 18.210938 -8.667969 18.425781 -8.492188 C 18.640625 -8.316406 18.757812 -8.09375 18.785156 -7.824219 C 18.882812 -6.835938 18.183594 -5.617188 16.691406 -4.171875 C 14.261719 -1.816406 11.625 -0.5 8.777344 -0.222656 C 7.640625 -0.113281 6.589844 -0.191406 5.625 -0.460938 C 4.660156 -0.726562 3.804688 -1.15625 3.050781 -1.75 C 2.296875 -2.339844 1.6875 -3.066406 1.226562 -3.929688 C 0.765625 -4.792969 0.480469 -5.761719 0.375 -6.839844 C 0.238281 -8.25 0.425781 -9.628906 0.945312 -10.980469 C 1.464844 -12.328125 2.222656 -13.546875 3.21875 -14.625 C 4.21875 -15.707031 5.40625 -16.609375 6.789062 -17.332031 C 8.167969 -18.058594 9.652344 -18.5 11.242188 -18.652344 C 12.949219 -18.820312 14.390625 -18.523438 15.570312 -17.761719 C 16.746094 -17 17.402344 -15.929688 17.539062 -14.550781 C 17.644531 -13.472656 17.34375 -12.4375 16.640625 -11.445312 C 15.933594 -10.457031 14.851562 -9.570312 13.382812 -8.792969 C 12.695312 -8.394531 11.898438 -8.058594 10.988281 -7.789062 C 10.078125 -7.515625 9.230469 -7.34375 8.453125 -7.265625 Z M 8.507812 -11.355469 C 10.867188 -11.949219 12 -12.738281 11.902344 -13.726562 C 11.875 -14.027344 11.761719 -14.265625 11.5625 -14.445312 C 11.363281 -14.621094 11.128906 -14.695312 10.859375 -14.667969 C 10.289062 -14.613281 9.792969 -14.277344 9.371094 -13.664062 C 8.945312 -13.046875 8.660156 -12.277344 8.507812 -11.355469 Z M 8.507812 -11.355469 "/></g></g></g><g clip-path="url(#02e2e53205)"><g clip-path="url(#b3f4449943)"><g clip-path="url(#a9b4e309fa)"><g clip-path="url(#faf1f441f6)"><path fill="#000000" d="M 100.328125 69.230469 C 67.90625 72.476562 36.957031 76.230469 22.09375 78.765625 C 12.601562 80.378906 8.921875 81.382812 8.992188 82.285156 C 9.019531 82.65625 9.429688 82.625 11.554688 82.082031 C 20.453125 79.796875 41.847656 76.851562 81.164062 72.597656 C 105.449219 69.957031 152.011719 66.328125 150.011719 67.234375 C 149.089844 67.648438 141.242188 68.730469 113.621094 72.253906 C 60.203125 79.074219 50.894531 80.546875 51.019531 82.164062 C 51.105469 83.28125 53.066406 83.5 64.1875 83.601562 C 68.109375 83.640625 71.464844 83.785156 71.632812 83.929688 C 71.804688 84.070312 70.34375 84.527344 68.371094 84.964844 C 63.238281 86.144531 62.738281 86.277344 62.976562 86.445312 C 63.386719 86.789062 70.207031 85.632812 72.65625 84.785156 C 73.617188 84.460938 73.824219 84.257812 73.6875 83.707031 C 73.484375 82.753906 72.039062 82.585938 63.488281 82.410156 C 54.75 82.246094 53.785156 82.101562 57.179688 81.558594 C 64.824219 80.304688 80.953125 78.082031 108.066406 74.5625 C 145.871094 69.679688 152.832031 68.667969 155.714844 67.695312 C 156.613281 67.375 156.851562 67.136719 156.808594 66.578125 C 156.734375 65.648438 156.21875 65.5625 151.027344 65.5625 C 145.363281 65.597656 114.421875 67.820312 100.328125 69.230469 Z M 100.328125 69.230469 " fill-opacity="1" fill-rule="nonzero"/></g></g></g></g></svg>